# xmcd
#
# Track frame offsets:
# 150
# 17288
# 41297
# 60597
# 82607
# 102758
# 123971
# 143535
# 169362
# 189084
#
# Disc length: 2760 seconds
#
#
# Revision: 0
# Processed by: cddbd v1.5.1PL0 Copyright (c) Steve Scherf et al.
# Submitted via: FreeRIP 2.942 
#
DISCID=650ac60a
DTITLE=Mehmet Güreli - Yagmur
DYEAR=1900
DGENRE=jazz
TTITLE0=Sen Ve Ben
TTITLE1=Come Out To The Sun
TTITLE2=Kos Git Bir de Sen Bak
TTITLE3=Beyoglu
TTITLE4=Kedi
TTITLE5=Feelings
TTITLE6=Homage To Omer Hayyam
TTITLE7=Tutku
TTITLE8=Right Time Baby
TTITLE9=I Don't Wanna Be Your Lover
EXTD=
EXTT0=
EXTT1=
EXTT2=
EXTT3=
EXTT4=
EXTT5=
EXTT6=
EXTT7=
EXTT8=
EXTT9=
PLAYORDER=
